<svg width="396" height="101" viewBox="0 0 396 101" fill="none" xmlns="http://www.w3.org/2000/svg">
<rect width="396" height="101" fill="white"/>
<path d="M52.735 68V27.5H56.585L68.085 54.4V27.5H72.785V68H69.185L57.535 40.35V68H52.735ZM79.151 68V27.5H94.851V31.7H84.801V45.1H92.951V49.1H84.801V63.95H94.951V68H79.151ZM103.962 68V31.7H97.1123V27.5H116.262V31.7H109.612V68H103.962ZM125.417 68L118.817 27.5H123.517L127.867 56.6L133.317 27.65H137.317L142.817 56.75L147.067 27.5H151.667L145.167 68H141.067L135.417 38L129.717 68H125.417ZM166.552 68.45C163.818 68.45 161.635 67.9167 160.002 66.85C158.368 65.7833 157.202 64.2667 156.502 62.3C155.802 60.3 155.452 57.9667 155.452 55.3V39.95C155.452 37.2833 155.802 35 156.502 33.1C157.235 31.1667 158.402 29.7 160.002 28.7C161.635 27.6667 163.818 27.15 166.552 27.15C169.285 27.15 171.452 27.6667 173.052 28.7C174.652 29.7333 175.802 31.2 176.502 33.1C177.235 35 177.602 37.2833 177.602 39.95V55.35C177.602 57.9833 177.235 60.2833 176.502 62.25C175.802 64.2167 174.652 65.75 173.052 66.85C171.452 67.9167 169.285 68.45 166.552 68.45ZM166.552 64C168.052 64 169.185 63.7 169.952 63.1C170.718 62.4667 171.235 61.6 171.502 60.5C171.768 59.3667 171.902 58.05 171.902 56.55V38.8C171.902 37.3 171.768 36.0167 171.502 34.95C171.235 33.85 170.718 33.0167 169.952 32.45C169.185 31.85 168.052 31.55 166.552 31.55C165.052 31.55 163.902 31.85 163.102 32.45C162.335 33.0167 161.818 33.85 161.552 34.95C161.285 36.0167 161.152 37.3 161.152 38.8V56.55C161.152 58.05 161.285 59.3667 161.552 60.5C161.818 61.6 162.335 62.4667 163.102 63.1C163.902 63.7 165.052 64 166.552 64ZM183.155 68V27.5H191.305C194.005 27.5 196.238 27.8667 198.005 28.6C199.772 29.3 201.072 30.45 201.905 32.05C202.772 33.6167 203.205 35.6833 203.205 38.25C203.205 39.8167 203.038 41.25 202.705 42.55C202.372 43.8167 201.838 44.9 201.105 45.8C200.372 46.6667 199.405 47.3 198.205 47.7L203.955 68H198.505L193.205 49H188.805V68H183.155ZM188.805 44.95H190.955C192.555 44.95 193.855 44.75 194.855 44.35C195.855 43.95 196.588 43.2667 197.055 42.3C197.522 41.3333 197.755 39.9833 197.755 38.25C197.755 35.8833 197.322 34.1833 196.455 33.15C195.588 32.0833 193.872 31.55 191.305 31.55H188.805V44.95ZM209.083 68V27.5H214.733V46.6L224.033 27.5H229.283L221.283 45.35L230.583 68H225.083L217.333 49L214.733 53.7V68H209.083ZM245.164 68L245.914 27.5H251.464L258.614 60.35L265.814 27.5H271.314L272.064 68H267.514L267.064 38.6L260.214 68H257.014L250.214 38.6L249.764 68H245.164ZM278.272 68V27.5H293.972V31.7H283.922V45.1H292.072V49.1H283.922V63.95H294.072V68H278.272ZM319.609 68.45C317.276 68.45 315.326 67.95 313.759 66.95C312.226 65.95 311.059 64.5667 310.259 62.8C309.459 61.0333 308.993 58.9833 308.859 56.65L313.859 55.3C313.959 56.7333 314.176 58.1167 314.509 59.45C314.876 60.7833 315.459 61.8833 316.259 62.75C317.059 63.5833 318.176 64 319.609 64C321.076 64 322.176 63.6 322.909 62.8C323.676 61.9667 324.059 60.7833 324.059 59.25C324.059 57.4167 323.643 55.95 322.809 54.85C321.976 53.7167 320.926 52.5833 319.659 51.45L312.859 45.45C311.526 44.2833 310.543 43.0167 309.909 41.65C309.276 40.25 308.959 38.5333 308.959 36.5C308.959 33.5333 309.809 31.2333 311.509 29.6C313.209 27.9667 315.526 27.15 318.459 27.15C320.059 27.15 321.459 27.3667 322.659 27.8C323.893 28.2 324.909 28.8333 325.709 29.7C326.543 30.5667 327.193 31.6667 327.659 33C328.159 34.3 328.493 35.8333 328.659 37.6L323.859 38.9C323.759 37.5667 323.559 36.35 323.259 35.25C322.959 34.1167 322.426 33.2167 321.659 32.55C320.926 31.85 319.859 31.5 318.459 31.5C317.059 31.5 315.959 31.8833 315.159 32.65C314.393 33.3833 314.009 34.4833 314.009 35.95C314.009 37.1833 314.209 38.2 314.609 39C315.043 39.8 315.726 40.6167 316.659 41.45L323.509 47.45C325.043 48.7833 326.393 50.3833 327.559 52.25C328.726 54.0833 329.309 56.2667 329.309 58.8C329.309 60.8 328.893 62.5333 328.059 64C327.226 65.4333 326.076 66.5333 324.609 67.3C323.176 68.0667 321.509 68.45 319.609 68.45ZM333.692 68V27.5H339.342V63.95H349.692V68H333.692Z" fill="#3F51B5"/>
</svg>
